<?xml version="1.0" encoding="utf-8"?>
<!-- Generator: Adobe Illustrator 26.2.1, SVG Export Plug-In . SVG Version: 6.00 Build 0)  -->
<svg version="1.1" id="Layer_1" xmlns="http://www.w3.org/2000/svg" xmlns:xlink="http://www.w3.org/1999/xlink" x="0px" y="0px"
	 viewBox="0 0 554 554" style="enable-background:new 0 0 554 554;" xml:space="preserve">
<style type="text/css">
	.st0{fill:#F3BA2F;}
	.st1{fill:#FFFFFF;}
</style>
<desc>Created with Sketch.</desc>
<g>
	<circle class="st0" cx="277" cy="276.8" r="276.8"/>
	<path class="st1" d="M209.8,249.2L277,182l67.2,67.2l39.1-39.1L277,103.8L170.7,210.1L209.8,249.2z M104,276.8l39.1-39.1l39.1,39.1
		L143.1,316L104,276.8z M209.8,304.5l67.2,67.2l67.2-67.2l39.1,39.1L277,449.9L170.7,343.6l-0.1-0.1
		C170.6,343.5,209.8,304.5,209.8,304.5z M371.8,276.8l39.1-39.1l39.1,39.1L410.9,316L371.8,276.8z M316.7,276.8L316.7,276.8
		L316.7,276.8L277,316.5l-39.6-39.6l-0.1-0.1l0.1-0.1l6.9-7l3.4-3.4l29.3-29.3L316.7,276.8L316.7,276.8z"/>
</g>
</svg>
