<?xml version="1.0" encoding="UTF-8"?>
<svg width="556px" height="556px" viewBox="0 0 556 556" version="1.1" xmlns="http://www.w3.org/2000/svg" xmlns:xlink="http://www.w3.org/1999/xlink">
    <!-- Generator: Sketch 43.2 (39069) - http://www.bohemiancoding.com/sketch -->
    <title>Group 2</title>
    <desc>Created with Sketch.</desc>
    <defs></defs>
    <g id="Page-1" stroke="none" stroke-width="1" fill="none" fill-rule="evenodd">
        <g id="Group-2" transform="translate(1.000000, 1.000000)">
            <g id="Group" fill="#FFFFFF" stroke="#979797">
                <g id="Solana">
                    <circle id="Oval-2" cx="277" cy="277" r="277"></circle>
                </g>
            </g>
            <g id="cardano-ada-logo" transform="translate(89.000000, 103.000000)" fill-rule="nonzero" fill="#0033AD">
                <path d="M103.8,173 C103,186.9 113.7,198.8 127.6,199.6 L129.1,199.6 C143.1,199.6 154.4,188.3 154.3,174.3 C154.3,160.3 143,149 129,149.1 C115.6,149.1 104.5,159.6 103.8,173 Z" id="Shape"></path>
                <path d="M9.6,166.5 C5.1,166.2 1.2,169.7 1,174.2 C0.8,178.7 4.2,182.6 8.7,182.8 C13.2,183.1 17,179.6 17.3,175.1 C17.6,170.6 14.1,166.8 9.6,166.5 L9.6,166.5 Z" id="Shape"></path>
                <path d="M102.2,26.4 C106.2,24.4 107.8,19.4 105.8,15.4 C103.8,11.4 98.8,9.8 94.8,11.8 C90.8,13.8 89.2,18.7 91.2,22.7 C93.2,26.8 98.1,28.5 102.2,26.4 C102.1,26.4 102.2,26.4 102.2,26.4 Z" id="Shape"></path>
                <path d="M127.8,71.1 C134,68 136.5,60.4 133.4,54.2 C130.3,48 122.7,45.5 116.5,48.6 C110.3,51.7 107.8,59.3 110.9,65.5 C114,71.7 121.6,74.2 127.8,71.1 Z" id="Shape"></path>
                <path d="M41.6,101.8 C46.4,104.9 52.8,103.6 56,98.8 C59.1,94 57.8,87.6 53,84.4 C48.2,81.3 41.8,82.6 38.6,87.4 L38.6,87.4 C35.4,92.2 36.8,98.7 41.6,101.8 Z" id="Shape"></path>
                <path d="M56.9,162 C49.9,161.6 44,166.9 43.6,173.9 C43.2,180.9 48.5,186.8 55.5,187.2 C62.5,187.6 68.4,182.3 68.8,175.3 L68.8,175.3 C69.2,168.4 63.9,162.4 56.9,162 Z" id="Shape"></path>
                <path d="M43,246.7 C37.9,249.3 35.8,255.5 38.4,260.7 C41,265.8 47.2,267.9 52.4,265.3 C57.5,262.7 59.6,256.5 57,251.3 L57,251.3 C54.4,246.2 48.1,244.1 43,246.7 L43,246.7 Z" id="Shape"></path>
                <path d="M92,135.9 C98.9,140.4 108.1,138.5 112.5,131.6 C117,124.7 115.1,115.5 108.2,111.1 C101.3,106.6 92.1,108.5 87.7,115.4 C83.2,122.2 85.1,131.4 92,135.9 L92,135.9 Z" id="Shape"></path>
                <path d="M247.5,70.1 C253.3,73.9 261.2,72.3 265,66.5 C268.8,60.7 267.2,52.8 261.4,49 C255.6,45.2 247.7,46.8 243.9,52.6 L243.9,52.6 C240,58.5 241.6,66.3 247.5,70.1 L247.5,70.1 Z" id="Shape"></path>
                <path d="M273.3,25.6 C277.1,28.1 282.1,27 284.6,23.2 C287.1,19.4 286,14.4 282.2,11.9 C278.4,9.4 273.4,10.5 270.9,14.2 C268.5,18 269.6,23.1 273.3,25.6 L273.3,25.6 Z" id="Shape"></path>
                <path d="M249.4,148.9 C235.5,148.1 223.5,158.8 222.8,172.7 C222,186.6 232.7,198.6 246.6,199.3 L248,199.3 C261.9,199.3 273.2,188 273.2,174 C273.3,160.7 262.8,149.6 249.4,148.9 L249.4,148.9 Z" id="Shape"></path>
                <path d="M136.1,134.1 C140.4,142.6 149.1,148 158.7,148 C172.6,148 183.9,136.7 183.9,122.7 C183.9,118.8 183,114.9 181.2,111.3 C174.9,98.8 159.7,93.8 147.3,100.1 C134.8,106.5 129.8,121.7 136.1,134.1 L136.1,134.1 Z" id="Shape"></path>
                <path d="M334,101.8 C339.1,99.2 341.1,92.9 338.5,87.8 C335.9,82.7 329.6,80.7 324.5,83.3 C319.4,85.9 317.4,92.1 319.9,97.2 C322.6,102.3 328.8,104.4 334,101.8 L334,101.8 Z" id="Shape"></path>
                <path d="M270,109.8 C262.7,113.5 259.7,122.4 263.4,129.7 C267.1,137 276,140 283.3,136.3 C290.6,132.6 293.6,123.7 289.9,116.4 C286.2,109.1 277.3,106.2 270,109.8 Z" id="Shape"></path>
                <path d="M187.5,21.8 C193.2,22.1 198.1,17.7 198.5,12 C198.9,6.3 194.4,1.4 188.7,1 C183,0.7 178.1,5 177.7,10.7 C177.4,16.5 181.8,21.4 187.5,21.8 L187.5,21.8 Z" id="Shape"></path>
                <path d="M187.4,87.1 C195.6,87.6 202.6,81.3 203,73.1 C203.5,64.9 197.2,57.9 189,57.5 C180.8,57 173.8,63.3 173.4,71.5 C173,79.7 179.2,86.7 187.4,87.1 L187.4,87.1 Z" id="Shape"></path>
                <path d="M107,238.7 C114.3,235 117.3,226.1 113.6,218.8 C109.9,211.5 101,208.5 93.7,212.2 C86.4,215.9 83.4,224.8 87.1,232.1 C90.8,239.4 99.7,242.4 107,238.7 Z" id="Shape"></path>
                <path d="M197,108.8 C189.4,120.5 192.6,136.1 204.3,143.7 C216,151.3 231.6,148.1 239.2,136.4 C246.8,124.7 243.6,109.1 231.9,101.5 C227.8,98.8 223,97.4 218.1,97.4 C209.6,97.4 201.7,101.7 197,108.8 Z" id="Shape"></path>
                <path d="M240.9,214.4 C234.6,201.9 219.4,196.9 207,203.2 C194.5,209.5 189.5,224.7 195.8,237.1 C202.1,249.6 217.3,254.6 229.7,248.3 L229.7,248.3 C242.1,242.1 247.2,227.1 241,214.6 C241,214.5 241,214.5 240.9,214.4 Z" id="Shape"></path>
                <path d="M285,212.6 C278.1,208.1 268.9,210 264.5,216.9 C260,223.8 261.9,233 268.8,237.4 C275.7,241.9 284.9,240 289.3,233.1 C293.8,226.3 291.9,217.1 285,212.6 L285,212.6 Z" id="Shape"></path>
                <path d="M333.4,174.7 C333.8,167.7 328.5,161.8 321.5,161.4 C314.5,161 308.6,166.3 308.2,173.3 C307.8,180.3 313.1,186.2 320.1,186.6 L320.1,186.6 C327,187 333,181.6 333.4,174.7 Z" id="Shape"></path>
                <path d="M368.3,165.7 C363.8,165.4 359.9,168.9 359.7,173.4 C359.5,177.9 362.9,181.8 367.4,182 C371.9,182.3 375.7,178.8 376,174.3 C376.2,169.8 372.8,166 368.3,165.7 Z" id="Shape"></path>
                <path d="M335.4,246.7 C330.6,243.6 324.2,244.9 321,249.7 C317.9,254.5 319.2,260.9 324,264.1 C328.8,267.2 335.2,265.9 338.4,261.1 C341.6,256.3 340.2,249.8 335.4,246.7 L335.4,246.7 Z" id="Shape"></path>
                <path d="M103.6,322.9 C99.8,320.4 94.8,321.5 92.3,325.2 C89.8,329 90.9,334 94.6,336.5 C98.4,339 103.4,337.9 105.9,334.2 L105.9,334.2 C108.5,330.5 107.4,325.4 103.6,322.9 Z" id="Shape"></path>
                <path d="M274.8,322.1 C270.8,324.1 269.2,329.1 271.2,333.1 C273.2,337.1 278.2,338.7 282.2,336.7 C286.2,334.7 287.8,329.8 285.8,325.8 C283.8,321.7 278.9,320 274.8,322.1 L274.8,322.1 Z" id="Shape"></path>
                <path d="M180,239.7 C187.6,228 184.4,212.4 172.7,204.7 C161,197.1 145.4,200.3 137.7,212 C130,223.7 133.3,239.3 145,247 C149.1,249.7 153.9,251.1 158.8,251.1 C167.4,251.2 175.3,246.9 180,239.7 Z" id="Shape"></path>
                <path d="M129.5,278.4 C123.7,274.6 115.8,276.2 112,282 C108.2,287.8 109.8,295.7 115.6,299.5 C121.4,303.3 129.3,301.7 133.1,295.9 L133.1,295.9 C137,290.1 135.4,282.2 129.5,278.4 Z" id="Shape"></path>
                <path d="M188.4,326.7 C182.7,326.4 177.8,330.8 177.4,336.5 C177,342.2 181.5,347.1 187.2,347.5 C192.9,347.8 197.8,343.5 198.2,337.8 C198.5,332 194.1,327.1 188.4,326.7 L188.4,326.7 Z" id="Shape"></path>
                <path d="M188.5,261.4 C180.3,260.9 173.3,267.2 172.9,275.4 C172.4,283.6 178.7,290.6 186.9,291 C195.1,291.4 202.1,285.2 202.5,277 C203,268.9 196.7,261.8 188.5,261.4 L188.5,261.4 Z" id="Shape"></path>
                <path d="M249.2,277.4 C243,280.6 240.5,288.2 243.7,294.4 C246.9,300.6 254.5,303.1 260.7,299.9 C266.9,296.8 269.4,289.2 266.3,283 C263.1,276.8 255.5,274.2 249.2,277.4 L249.2,277.4 Z" id="Shape"></path>
            </g>
        </g>
    </g>
</svg>