<?xml version="1.0" encoding="utf-8"?>
<!-- Generator: Adobe Illustrator 26.2.1, SVG Export Plug-In . SVG Version: 6.00 Build 0)  -->
<svg version="1.1" id="Layer_1" xmlns="http://www.w3.org/2000/svg" xmlns:xlink="http://www.w3.org/1999/xlink" x="0px" y="0px"
	 viewBox="0 0 827.5 801.7" style="enable-background:new 0 0 827.5 801.7;" xml:space="preserve">
<style type="text/css">
	.st0{fill:#190A0B;}
	.st1{fill:#F2F2F2;}
	.st2{fill:#231F20;}
</style>
<circle class="st0" cx="-269" cy="181.2" r="180.2"/>
<g>
	<path class="st1" d="M-333.2,206.9l-18.5-18.4c-6.8-6.7-6.8-17.6-0.1-24.4l10-10c6.4-6.4,16.6-6.7,23.4-0.9l0,0c0,0,0,0,0,0
		c0,0,0,0,0,0c0.2,0.2,0.4,0.4,0.6,0.6l18.8,18.8l24.2-24.2l-26.2-26.1l-0.6-0.9c-0.4-0.4-0.8-0.7-1.1-1.1h0
		c-7.3-6.7-16.9-10.4-26.9-10.3c-9.7,0.2-19.8,3.5-26.8,10.2l-2.4,2.2l-24.2,24.2c-2.4,2.4-4.1,5.5-4.7,8.9
		c-0.2,1.1-0.3,2.1-0.3,3.2v20.8v13.9c0,4.2,1.6,8.3,4.4,11.4C-355.9,229.9-333.2,207-333.2,206.9z M-321.6,150.9
		c0.1,0.1,0.3,0.2,0.4,0.2C-321.3,151-321.5,151-321.6,150.9z M-321.2,151.1c0.3,0.2,0.5,0.3,0.7,0.4
		C-320.7,151.4-320.9,151.3-321.2,151.1z M-320.5,151.5C-320.5,151.6-320.5,151.6-320.5,151.5C-320.5,151.6-320.5,151.6-320.5,151.5
		z M-318.4,153.3c-0.2-0.2-0.5-0.4-0.7-0.6C-318.9,152.9-318.6,153.1-318.4,153.3z M-319.2,152.6c-0.3-0.2-0.6-0.5-1-0.8
		C-319.8,152.1-319.5,152.3-319.2,152.6z M-320.2,151.8C-320.2,151.8-320.2,151.7-320.2,151.8C-320.2,151.7-320.2,151.8-320.2,151.8
		C-320.2,151.8-320.2,151.8-320.2,151.8z M-320.2,151.8c-0.3-0.2-0.5-0.4-0.8-0.6C-320.7,151.4-320.4,151.6-320.2,151.8z
		 M-321,151.1c-0.3-0.2-0.6-0.4-0.9-0.6C-321.6,150.7-321.3,150.9-321,151.1z"/>
	<path class="st1" d="M-158.6,203.8l-24.3-24.4l-28.1,28.2l0,0l-4.3,4.3l-0.9,0.9c0,0,0,0,0,0c-0.7,0.7-1.5,1.4-2.3,2.1
		c0,0-0.1,0.1-0.1,0.1c-10.9,8.9-27.5,11.1-37.4,1.1c0,0,0,0,0,0l18.3,18.4c0.3,0.3,0.5,0.5,0.8,0.8l-0.4-0.4c1.5,1.5,3,2.8,4.5,4
		l0.2,0.2l0,0c12.2,9.6,22.3,8.4,32,3.4c3.2-1.6,6.1-3.8,8.6-6.2L-158.6,203.8z"/>
	<path class="st1" d="M-254.9,216.4c12.2,4.3,27.7,2.7,36.3-6l2.8-2.9l-15-15c0,0,0,0,0,0l-4.6-4.6c-1-1-2-2.1-2.9-3.1
		c-4.9-5.5-7.1-11.1,2.9-21.1l9.4-9.5c9.1-9.1,17.7-6.8,24.4,0l46.3,46.3l0.1-0.1c10.9-10.9,13-27.2,6.3-40.2
		c-1.4-2.8-3.4-5.2-5.6-7.4l-31.7-31.7c-0.1-0.1-0.3-0.3-0.4-0.4c-0.2-0.2-0.5-0.5-0.7-0.7v0c-12.2-11.3-31-14-47-4.5
		c-1.6,1-3.1,2.2-4.5,3.4l-0.8,0.7c-0.6,0.6-1.6,1.5-2.2,2.1l-29.8,29.8l-24.2,24.2l-1,1c-0.2,0.2-0.4,0.4-0.6,0.6l-5.7,5.8
		l-1.1,1.1l-0.5,0.5l0,0l0,0l0,0l-25.2,25.3c0,0-3.4,3.4-9.2,6.2c-1,0.5-2,0.9-3.1,1.3c-2.7,1-5.8,1.8-9.2,2c-0.7,0-1.4,0.1-2.1,0.1
		c-0.7,0-1.4,0-2.2-0.1c-1.5-0.1-3-0.3-4.5-0.6c-6.9-1.4-14.6-5.3-22.7-13.4c0,0,0,0,0,0l0,0c0,0-0.1-0.1-0.1-0.1l4.1,4.1
		c-0.1-0.1-0.2-0.2-0.3-0.3l28.9,28.9l0,0c13.5,13.4,35.2,13.3,48.7-0.1l21.6-21.7c6.6-6.6,17.2-6.8,23.9-0.5"/>
	<path class="st1" d="M-254.9,216.4c12.2,4.3,27.7,2.7,36.3-6l2.8-2.9l-15-15c0,0,0,0,0,0l-4.6-4.6c-1-1-2-2.1-2.9-3.1
		c-4.9-5.5-7.1-11.1,2.9-21.1l9.4-9.5c9.1-9.1,17.7-6.8,24.4,0l46.3,46.3l0.1-0.1c10.9-10.9,13-27.2,6.3-40.2
		c-1.4-2.8-3.4-5.2-5.6-7.4l-31.7-31.7c-0.1-0.1-0.3-0.3-0.4-0.4c-0.2-0.2-0.5-0.5-0.7-0.7v0c-12.2-11.3-31-14-47-4.5
		c-1.6,1-3.1,2.2-4.5,3.4l-0.8,0.7c-0.6,0.6-1.6,1.5-2.2,2.1l-29.8,29.8l-24.2,24.2l-1,1c-0.2,0.2-0.4,0.4-0.6,0.6l-5.7,5.8
		l-1.1,1.1l-0.5,0.5l0,0l0,0l0,0l-25.2,25.3c0,0-3.4,3.4-9.2,6.2c-1,0.5-2,0.9-3.1,1.3c-2.7,1-5.8,1.8-9.2,2c-0.7,0-1.4,0.1-2.1,0.1
		c-0.7,0-1.4,0-2.2-0.1c-1.5-0.1-3-0.3-4.5-0.6c-6.9-1.4-14.6-5.3-22.7-13.4c0,0,0,0,0,0l0,0c0,0-0.1-0.1-0.1-0.1l4.1,4.1
		c-0.1-0.1-0.2-0.2-0.3-0.3l28.9,28.9l0,0c13.5,13.4,35.2,13.3,48.7-0.1l21.6-21.7c6.6-6.6,17.2-6.8,23.9-0.5"/>
	<path class="st1" d="M-333.2,206.9l-18.5-18.4c-6.8-6.7-6.8-17.6-0.1-24.4l10-10c6.4-6.4,16.6-6.7,23.4-0.9l0,0c0,0,0,0,0,0
		c0,0,0,0,0,0c0.2,0.2,0.4,0.4,0.6,0.6l18.8,18.8l24.2-24.2l-26.2-26.1l-0.6-0.9c-0.4-0.4-0.8-0.7-1.1-1.1h0
		c-7.3-6.7-16.9-10.4-26.9-10.3c-9.7,0.2-19.8,3.5-26.8,10.2l-2.4,2.2l-24.2,24.2c-2.4,2.4-4.1,5.5-4.7,8.9
		c-0.2,1.1-0.3,2.1-0.3,3.2v20.8v13.9c0,4.2,1.6,8.3,4.4,11.4C-355.9,229.9-333.2,207-333.2,206.9z M-321.6,150.9
		c0.1,0.1,0.3,0.2,0.4,0.2C-321.3,151-321.5,151-321.6,150.9z M-321.2,151.1c0.3,0.2,0.5,0.3,0.7,0.4
		C-320.7,151.4-320.9,151.3-321.2,151.1z M-320.5,151.5C-320.5,151.6-320.5,151.6-320.5,151.5C-320.5,151.6-320.5,151.6-320.5,151.5
		z M-318.4,153.3c-0.2-0.2-0.5-0.4-0.7-0.6C-318.9,152.9-318.6,153.1-318.4,153.3z M-319.2,152.6c-0.3-0.2-0.6-0.5-1-0.8
		C-319.8,152.1-319.5,152.3-319.2,152.6z M-320.2,151.8C-320.2,151.8-320.2,151.7-320.2,151.8C-320.2,151.7-320.2,151.8-320.2,151.8
		C-320.2,151.8-320.2,151.8-320.2,151.8z M-320.2,151.8c-0.3-0.2-0.5-0.4-0.8-0.6C-320.7,151.4-320.4,151.6-320.2,151.8z
		 M-321,151.1c-0.3-0.2-0.6-0.4-0.9-0.6C-321.6,150.7-321.3,150.9-321,151.1z"/>
	<path class="st1" d="M-254.9,216.4c12.2,4.3,27.7,2.7,36.3-6l2.8-2.9l-15-15c0,0,0,0,0,0l-4.6-4.6c-1-1-2-2.1-2.9-3.1
		c-4.9-5.5-7.1-11.1,2.9-21.1l9.4-9.5c9.1-9.1,17.7-6.8,24.4,0l46.3,46.3l0.1-0.1c10.9-10.9,13-27.2,6.3-40.2
		c-1.4-2.8-3.4-5.2-5.6-7.4l-31.7-31.7c-0.1-0.1-0.3-0.3-0.4-0.4c-0.2-0.2-0.5-0.5-0.7-0.7v0c-12.2-11.3-31-14-47-4.5
		c-1.6,1-3.1,2.2-4.5,3.4l-0.8,0.7c-0.6,0.6-1.6,1.5-2.2,2.1l-29.8,29.8l-24.2,24.2l-1,1c-0.2,0.2-0.4,0.4-0.6,0.6l-5.7,5.8
		l-1.1,1.1l-0.5,0.5l0,0l0,0l0,0l-25.2,25.3c0,0-3.4,3.4-9.2,6.2c-1,0.5-2,0.9-3.1,1.3c-2.7,1-5.8,1.8-9.2,2c-0.7,0-1.4,0.1-2.1,0.1
		c-0.7,0-1.4,0-2.2-0.1c-1.5-0.1-3-0.3-4.5-0.6c-6.9-1.4-14.6-5.3-22.7-13.4c0,0,0,0,0,0l0,0c0,0-0.1-0.1-0.1-0.1l4.1,4.1
		c-0.1-0.1-0.2-0.2-0.3-0.3l28.9,28.9l0,0c13.5,13.4,35.2,13.3,48.7-0.1l21.6-21.7c6.6-6.6,17.2-6.8,23.9-0.5"/>
</g>
<g>
	<path class="st2" d="M289.9,358.7l-39.2-39.1c-14.4-14.2-14.5-37.4-0.3-51.7l21.2-21.3c13.6-13.7,35.3-14.3,49.7-1.9l0,0
		c0,0,0,0,0,0c0,0,0,0,0,0c0.4,0.4,0.9,0.8,1.3,1.2l39.9,39.9l51.3-51.3L358.2,179l-1.3-1.9c-0.8-0.8-1.6-1.6-2.4-2.3h0
		c-15.5-14.3-36-22.2-57.1-21.8c-20.7,0.3-41.9,7.4-56.9,21.6l-5,4.6l-51.3,51.3c-5.2,5.2-8.6,11.8-10,18.9
		c-0.4,2.3-0.7,4.6-0.7,6.9v44.2v29.6c0,9,3.4,17.6,9.4,24.2C241.7,407.3,289.7,358.9,289.9,358.7z M314.4,239.7
		c0.3,0.2,0.6,0.3,0.9,0.5C315,240,314.7,239.8,314.4,239.7z M315.4,240.2c0.6,0.3,1,0.6,1.4,0.9
		C316.4,240.8,315.9,240.5,315.4,240.2z M316.8,241.1C316.9,241.1,316.9,241.1,316.8,241.1C316.9,241.1,316.9,241.1,316.8,241.1z
		 M321.3,244.7c-0.5-0.4-1-0.9-1.6-1.4C320.3,243.9,320.8,244.3,321.3,244.7z M319.6,243.3c-0.6-0.5-1.3-1.1-2-1.7
		C318.3,242.2,319,242.7,319.6,243.3z M317.5,241.6c-0.1,0-0.1-0.1-0.2-0.1C317.4,241.5,317.5,241.5,317.5,241.6
		C317.5,241.6,317.5,241.6,317.5,241.6z M317.5,241.6c-0.5-0.4-1.1-0.9-1.7-1.3C316.4,240.7,317,241.1,317.5,241.6z M315.7,240.2
		c-0.6-0.4-1.2-0.9-1.9-1.4C314.5,239.3,315.1,239.7,315.7,240.2z"/>
	<path class="st2" d="M660.6,352l-51.7-51.7l-59.7,59.8l0,0l-9.2,9.2l-1.9,1.9c0,0,0,0,0,0c-1.5,1.5-3.2,3-4.8,4.4
		c-0.1,0.1-0.2,0.1-0.2,0.2c-23.1,19-58.3,23.5-79.4,2.3c0,0,0,0-0.1-0.1l38.8,39c0.6,0.6,1.1,1.1,1.7,1.7l-0.8-0.8
		c3.3,3.2,6.5,5.9,9.6,8.4l0.4,0.4l0,0c25.8,20.4,47.4,17.8,68,7.2c6.7-3.5,12.8-8,18.3-13.2L660.6,352z"/>
	<path class="st2" d="M456,378.8c25.8,9.2,58.7,5.7,77.1-12.6l6-6.1l-31.8-31.8c0,0,0,0,0,0l-9.8-9.9c-2.2-2.2-4.3-4.4-6.2-6.5
		c-10.4-11.7-15.1-23.5,6.2-44.8l20-20.2c19.2-19.2,37.5-14.4,51.8,0l98.2,98.3l0.3-0.3c23.2-23,27.7-57.7,13.5-85.3
		c-3-5.9-7.3-11-11.9-15.7l-67.3-67.3c-0.3-0.3-0.6-0.5-0.9-0.8c-0.5-0.5-1-1-1.6-1.5v0c-26-23.9-65.7-29.8-99.7-9.5
		c-3.4,2-6.5,4.6-9.5,7.2l-1.7,1.6c-1.3,1.2-3.5,3.3-4.8,4.5l-63.3,63.3l-51.3,51.3l-2.2,2.2c-0.4,0.4-0.9,0.8-1.4,1.3l-12.2,12.2
		l-2.3,2.3l-1.1,1.1l0,0l0,0l0,0l-53.4,53.7c0,0-7.2,7.3-19.4,13.2c-2,1-4.2,1.9-6.5,2.8c-5.8,2.2-12.4,3.8-19.6,4.3
		c-1.5,0.1-2.9,0.2-4.4,0.2c-1.5,0-3,0-4.6-0.1c-3.1-0.2-6.3-0.6-9.6-1.3c-14.7-3-31.1-11.3-48.3-28.4c0,0,0,0,0,0l0,0
		c-0.1-0.1-0.1-0.1-0.2-0.2l8.6,8.6c-0.2-0.2-0.4-0.4-0.5-0.5l61.4,61.3l0,0c28.6,28.4,74.8,28.3,103.3-0.3l45.8-46
		c13.9-14.1,36.4-14.4,50.7-1"/>
	<path class="st2" d="M456,378.8c25.8,9.2,58.7,5.7,77.1-12.6l6-6.1l-31.8-31.8c0,0,0,0,0,0l-9.8-9.9c-2.2-2.2-4.3-4.4-6.2-6.5
		c-10.4-11.7-15.1-23.5,6.2-44.8l20-20.2c19.2-19.2,37.5-14.4,51.8,0l98.2,98.3l0.3-0.3c23.2-23,27.7-57.7,13.5-85.3
		c-3-5.9-7.3-11-11.9-15.7l-67.3-67.3c-0.3-0.3-0.6-0.5-0.9-0.8c-0.5-0.5-1-1-1.6-1.5v0c-26-23.9-65.7-29.8-99.7-9.5
		c-3.4,2-6.5,4.6-9.5,7.2l-1.7,1.6c-1.3,1.2-3.5,3.3-4.8,4.5l-63.3,63.3l-51.3,51.3l-2.2,2.2c-0.4,0.4-0.9,0.8-1.4,1.3l-12.2,12.2
		l-2.3,2.3l-1.1,1.1l0,0l0,0l0,0l-53.4,53.7c0,0-7.2,7.3-19.4,13.2c-2,1-4.2,1.9-6.5,2.8c-5.8,2.2-12.4,3.8-19.6,4.3
		c-1.5,0.1-2.9,0.2-4.4,0.2c-1.5,0-3,0-4.6-0.1c-3.1-0.2-6.3-0.6-9.6-1.3c-14.7-3-31.1-11.3-48.3-28.4c0,0,0,0,0,0l0,0
		c-0.1-0.1-0.1-0.1-0.2-0.2l8.6,8.6c-0.2-0.2-0.4-0.4-0.5-0.5l61.4,61.3l0,0c28.6,28.4,74.8,28.3,103.3-0.3l45.8-46
		c13.9-14.1,36.4-14.4,50.7-1"/>
	<path class="st2" d="M289.9,358.7l-39.2-39.1c-14.4-14.2-14.5-37.4-0.3-51.7l21.2-21.3c13.6-13.7,35.3-14.3,49.7-1.9l0,0
		c0,0,0,0,0,0c0,0,0,0,0,0c0.4,0.4,0.9,0.8,1.3,1.2l39.9,39.9l51.3-51.3L358.2,179l-1.3-1.9c-0.8-0.8-1.6-1.6-2.4-2.3h0
		c-15.5-14.3-36-22.2-57.1-21.8c-20.7,0.3-41.9,7.4-56.9,21.6l-5,4.6l-51.3,51.3c-5.2,5.2-8.6,11.8-10,18.9
		c-0.4,2.3-0.7,4.6-0.7,6.9v44.2v29.6c0,9,3.4,17.6,9.4,24.2C241.7,407.3,289.7,358.9,289.9,358.7z M314.4,239.7
		c0.3,0.2,0.6,0.3,0.9,0.5C315,240,314.7,239.8,314.4,239.7z M315.4,240.2c0.6,0.3,1,0.6,1.4,0.9
		C316.4,240.8,315.9,240.5,315.4,240.2z M316.8,241.1C316.9,241.1,316.9,241.1,316.8,241.1C316.9,241.1,316.9,241.1,316.8,241.1z
		 M321.3,244.7c-0.5-0.4-1-0.9-1.6-1.4C320.3,243.9,320.8,244.3,321.3,244.7z M319.6,243.3c-0.6-0.5-1.3-1.1-2-1.7
		C318.3,242.2,319,242.7,319.6,243.3z M317.5,241.6c-0.1,0-0.1-0.1-0.2-0.1C317.4,241.5,317.5,241.5,317.5,241.6
		C317.5,241.6,317.5,241.6,317.5,241.6z M317.5,241.6c-0.5-0.4-1.1-0.9-1.7-1.3C316.4,240.7,317,241.1,317.5,241.6z M315.7,240.2
		c-0.6-0.4-1.2-0.9-1.9-1.4C314.5,239.3,315.1,239.7,315.7,240.2z"/>
	<path class="st2" d="M456,378.8c25.8,9.2,58.7,5.7,77.1-12.6l6-6.1l-31.8-31.8c0,0,0,0,0,0l-9.8-9.9c-2.2-2.2-4.3-4.4-6.2-6.5
		c-10.4-11.7-15.1-23.5,6.2-44.8l20-20.2c19.2-19.2,37.5-14.4,51.8,0l98.2,98.3l0.3-0.3c23.2-23,27.7-57.7,13.5-85.3
		c-3-5.9-7.3-11-11.9-15.7l-67.3-67.3c-0.3-0.3-0.6-0.5-0.9-0.8c-0.5-0.5-1-1-1.6-1.5v0c-26-23.9-65.7-29.8-99.7-9.5
		c-3.4,2-6.5,4.6-9.5,7.2l-1.7,1.6c-1.3,1.2-3.5,3.3-4.8,4.5l-63.3,63.3l-51.3,51.3l-2.2,2.2c-0.4,0.4-0.9,0.8-1.4,1.3l-12.2,12.2
		l-2.3,2.3l-1.1,1.1l0,0l0,0l0,0l-53.4,53.7c0,0-7.2,7.3-19.4,13.2c-2,1-4.2,1.9-6.5,2.8c-5.8,2.2-12.4,3.8-19.6,4.3
		c-1.5,0.1-2.9,0.2-4.4,0.2c-1.5,0-3,0-4.6-0.1c-3.1-0.2-6.3-0.6-9.6-1.3c-14.7-3-31.1-11.3-48.3-28.4c0,0,0,0,0,0l0,0
		c-0.1-0.1-0.1-0.1-0.2-0.2l8.6,8.6c-0.2-0.2-0.4-0.4-0.5-0.5l61.4,61.3l0,0c28.6,28.4,74.8,28.3,103.3-0.3l45.8-46
		c13.9-14.1,36.4-14.4,50.7-1"/>
</g>
<g>
	<path class="st2" d="M97.2,609c-6.6-3.6-11.7-8.7-15.5-15.2c-3.7-6.5-5.6-13.9-5.6-22.2c0-8.3,1.9-15.7,5.6-22.2
		c3.7-6.5,8.9-11.6,15.5-15.2c6.6-3.6,14-5.4,22.3-5.4c6.7,0,12.9,1.3,18.7,3.9s10.5,6.3,14.3,11c3.8,4.7,6.2,10.1,7.2,16.1
		l-17.7,2.1c-1.1-5-3.8-9.1-7.9-12.4c-4.1-3.2-8.9-4.8-14.2-4.8c-4.8,0-9.1,1.1-12.8,3.4c-3.8,2.3-6.7,5.5-8.8,9.5
		c-2.1,4.1-3.1,8.7-3.1,14c0,5.2,1,9.9,3.1,14c2.1,4.1,5,7.3,8.8,9.6c3.8,2.3,8,3.4,12.8,3.4c5.2,0,9.8-1.6,14-4.7
		c4.1-3.2,6.9-7.2,8.2-12.1l17.8,2.4c-0.9,5.9-3.3,11.1-7,15.7c-3.8,4.6-8.5,8.2-14.3,10.7c-5.8,2.5-12.1,3.8-18.9,3.8
		C111.2,614.4,103.8,612.6,97.2,609z"/>
	<path class="st2" d="M170.1,531h18.9v31.5h33.8V531h18.9v81.2h-18.9v-34.5h-33.8v34.5h-18.9V531z"/>
	<path class="st2" d="M277.3,531h27.4l27.3,81.2h-19.2l-5-14.5H274l-5,14.5h-19.2L277.3,531z M303.6,583.8l-12.1-36.6h-1.1
		l-12.3,36.6H303.6z"/>
	<path class="st2" d="M339.9,531h18.9v81.2h-18.9V531z"/>
	<path class="st2" d="M373.1,531H395l30.8,56.7h1.1V531h18v81.2h-21.9l-30.8-56.6h-1.1v56.6h-18V531z"/>
	<path class="st2" d="M459.1,531h58.2v16.2h-39.1v17.9h34.2v14.8h-34.2v32.3h-19V531z"/>
	<path class="st2" d="M543.2,610.1c-5.5-2.9-9.8-7-12.9-12.2c-3.1-5.2-4.6-11.3-4.6-18.1V531h18.9v48.3c0,5.8,1.6,10.5,4.8,14
		c3.2,3.6,7.4,5.4,12.6,5.4c5.1,0,9.3-1.8,12.5-5.4c3.2-3.6,4.8-8.3,4.8-14V531h18.9v48.7c0,6.8-1.5,12.9-4.6,18.1
		c-3.1,5.2-7.4,9.3-12.8,12.2c-5.5,2.9-11.7,4.3-18.8,4.3C555,614.4,548.8,612.9,543.2,610.1z"/>
	<path class="st2" d="M625.6,610.8c-5.4-2.4-9.7-5.8-12.7-10.1c-3-4.3-4.5-9.4-4.5-15.2h18c0.1,4.5,1.7,8,5,10.6
		c3.3,2.6,7.8,3.9,13.7,3.9c4.9,0,8.7-0.9,11.5-2.7c2.8-1.8,4.2-4.4,4.2-7.6c0-2.4-0.8-4.4-2.3-5.8c-1.6-1.4-3.6-2.4-6-3.1
		c-2.4-0.7-5.7-1.3-9.7-1.9c-6.8-1-12.5-2.1-16.9-3.4c-4.4-1.3-8.3-3.5-11.6-6.8c-3.3-3.3-5-8-5-14c0-5.2,1.4-9.7,4.1-13.6
		c2.7-3.9,6.6-6.9,11.7-9c5.1-2.1,11-3.2,17.9-3.2c6.9,0,13,1.2,18.2,3.5c5.2,2.3,9.2,5.6,12,9.9c2.8,4.3,4.2,9.2,4.2,14.8h-17.5
		c0.1-4.3-1.4-7.7-4.3-10.2c-3-2.4-7-3.7-12.2-3.7c-4.7,0-8.4,0.9-11.1,2.7c-2.7,1.8-4.1,4.3-4.1,7.3c0,2.4,0.8,4.4,2.5,5.8
		c1.7,1.4,3.8,2.4,6.4,3.1c2.6,0.6,6.1,1.3,10.5,1.9c6.5,1,11.9,2.2,16.3,3.5c4.4,1.4,8.1,3.7,11.2,7.1c3.1,3.3,4.7,8,4.7,13.9
		c0,5.2-1.4,9.8-4.3,13.7c-2.9,3.9-6.9,6.9-12.2,9c-5.3,2.1-11.5,3.2-18.7,3.2C637.4,614.4,631,613.2,625.6,610.8z"/>
	<path class="st2" d="M690.4,531h59.9v15.3h-41.4v17.9h38.3v13.4h-38.3v19.4h42.6v15.3h-61V531z"/>
</g>
</svg>
