<?xml version="1.0" encoding="utf-8"?>
<!-- Generator: Adobe Illustrator 26.2.1, SVG Export Plug-In . SVG Version: 6.00 Build 0)  -->
<svg version="1.1" id="Layer_1" xmlns="http://www.w3.org/2000/svg" xmlns:xlink="http://www.w3.org/1999/xlink" x="0px" y="0px"
	 viewBox="0 0 554 554" style="enable-background:new 0 0 554 554;" xml:space="preserve">
<style type="text/css">
	.st0{fill:#F3BA2F;}
	.st1{fill:#FFFFFF;}
</style>
<desc>Created with Sketch.</desc>
<g>
	<circle class="st0" cx="-326.5" cy="276.8" r="276.8"/>
	<path class="st1" d="M-393.7,249.2l67.2-67.2l67.2,67.2l39.1-39.1l-106.3-106.3l-106.3,106.3L-393.7,249.2z M-499.5,276.8
		l39.1-39.1l39.1,39.1l-39.1,39.2L-499.5,276.8z M-393.7,304.5l67.2,67.2l67.2-67.2l39.1,39.1l-106.3,106.3l-106.3-106.3l-0.1-0.1
		C-432.9,343.5-393.7,304.5-393.7,304.5z M-231.7,276.8l39.1-39.1l39.1,39.1l-39.1,39.2L-231.7,276.8z M-286.8,276.8L-286.8,276.8
		L-286.8,276.8l-39.7,39.7l-39.6-39.6l-0.1-0.1l0.1-0.1l6.9-7l3.4-3.4l29.3-29.3L-286.8,276.8L-286.8,276.8z"/>
</g>
<g id="KZtutn.tif">
	
		<image style="overflow:visible;" width="705" height="706" id="Layer_0_00000041295969723789721590000017535141131785338243_" xlink:href="A0E91A6DC4D1C169.png"  transform="matrix(0.7858 0 0 0.7858 0 0)">
	</image>
</g>
</svg>
