<?xml version="1.0" encoding="UTF-8"?><svg xmlns="http://www.w3.org/2000/svg" viewBox="0 0 148.26 19.37"><defs><style>.d{fill:#231f20;}</style></defs><g id="a"/><g id="b"><g id="c"><g><path class="d" d="M7.67,13.58l-2.58-2.57c-.95-.93-.96-2.46-.02-3.4l1.39-1.4c.9-.9,2.33-.94,3.27-.12h0s.06,.05,.09,.08l2.63,2.63,3.38-3.38-3.66-3.65-.08-.12c-.05-.05-.11-.1-.16-.15h0C10.9,.53,9.55,.02,8.16,.04c-1.36,.02-2.76,.49-3.75,1.42l-.33,.3L.7,5.14c-.34,.34-.57,.78-.66,1.24-.03,.15-.04,.3-.04,.45v4.86c0,.59,.23,1.16,.62,1.59,3.88,3.49,7.04,.3,7.05,.28Zm1.61-7.83s.04,.02,.06,.03c-.02-.01-.04-.02-.06-.03Zm.06,.03s.07,.04,.09,.06c-.03-.02-.06-.04-.09-.06Zm.1,.06h0Zm.29,.24s-.06-.06-.1-.09c.04,.03,.07,.06,.1,.09Zm-.11-.1s-.08-.07-.13-.11c.05,.04,.09,.08,.13,.11Zm-.13-.11h0Zm0,0s-.07-.06-.11-.09c.04,.03,.08,.06,.11,.09Zm-.12-.09s-.08-.06-.12-.09c.04,.03,.08,.06,.12,.09Z"/><path class="d" d="M32.08,13.14l-3.4-3.4-3.93,3.94h0l-.6,.61-.13,.13h0c-.1,.1-.21,.2-.32,.29h-.01c-1.52,1.26-3.84,1.56-5.23,.16h0l2.56,2.56s.07,.07,.11,.11l-.05-.05c.22,.21,.43,.39,.63,.56l.02,.02h0c1.7,1.34,3.12,1.17,4.47,.47,.44-.23,.85-.52,1.2-.87l4.68-4.52Z"/><path class="d" d="M18.61,14.91c1.7,.61,3.87,.38,5.08-.83l.4-.4-2.09-2.09h0l-.65-.65c-.14-.15-.28-.29-.41-.43-.69-.77-1-1.55,.41-2.95l1.32-1.33c1.27-1.27,2.47-.95,3.41,0l6.47,6.47,.02-.02c1.52-1.52,1.82-3.8,.89-5.62-.2-.39-.48-.73-.79-1.03L28.23,1.59s-.04-.04-.06-.05c-.03-.03-.07-.07-.1-.1h0c-1.71-1.58-4.33-1.96-6.56-.62-.22,.13-.43,.3-.62,.48l-.11,.1-.31,.3-4.17,4.17-3.38,3.38-.14,.14s-.06,.06-.09,.09l-.8,.81-.15,.15-.07,.07h0l-3.52,3.54s-.47,.48-1.28,.87c-.13,.06-.28,.13-.43,.18-.38,.14-.81,.25-1.29,.29-.1,0-.19,.01-.29,.01-.1,0-.2,0-.3,0-.2-.01-.41-.04-.63-.08-.97-.2-2.05-.74-3.18-1.87h0v-.02l.55,.57-.04-.04,4.04,4.04h0c1.88,1.87,4.93,1.86,6.8-.02l3.02-3.03c.92-.93,2.4-.95,3.34-.07"/><path class="d" d="M18.61,14.91c1.7,.61,3.87,.38,5.08-.83l.4-.4-2.09-2.09h0l-.65-.65c-.14-.15-.28-.29-.41-.43-.69-.77-1-1.55,.41-2.95l1.32-1.33c1.27-1.27,2.47-.95,3.41,0l6.47,6.47,.02-.02c1.52-1.52,1.82-3.8,.89-5.62-.2-.39-.48-.73-.79-1.03L28.23,1.59s-.04-.04-.06-.05c-.03-.03-.07-.07-.1-.1h0c-1.71-1.58-4.33-1.96-6.56-.62-.22,.13-.43,.3-.62,.48l-.11,.1-.31,.3-4.17,4.17-3.38,3.38-.14,.14s-.06,.06-.09,.09l-.8,.81-.15,.15-.07,.07h0l-3.52,3.54s-.47,.48-1.28,.87c-.13,.06-.28,.13-.43,.18-.38,.14-.81,.25-1.29,.29-.1,0-.19,.01-.29,.01-.1,0-.2,0-.3,0-.2-.01-.41-.04-.63-.08-.97-.2-2.05-.74-3.18-1.87h0v-.02l.55,.57-.04-.04,4.04,4.04h0c1.88,1.87,4.93,1.86,6.8-.02l3.02-3.03c.92-.93,2.4-.95,3.34-.07"/><path class="d" d="M7.67,13.58l-2.58-2.57c-.95-.93-.96-2.46-.02-3.4l1.39-1.4c.9-.9,2.33-.94,3.27-.12h0s.06,.05,.09,.08l2.63,2.63,3.38-3.38-3.66-3.65-.08-.12c-.05-.05-.11-.1-.16-.15h0C10.9,.53,9.55,.02,8.16,.04c-1.36,.02-2.76,.49-3.75,1.42l-.33,.3L.7,5.14c-.34,.34-.57,.78-.66,1.24-.03,.15-.04,.3-.04,.45v4.86c0,.59,.23,1.16,.62,1.59,3.88,3.49,7.04,.3,7.05,.28Zm1.61-7.83s.04,.02,.06,.03c-.02-.01-.04-.02-.06-.03Zm.06,.03s.07,.04,.09,.06c-.03-.02-.06-.04-.09-.06Zm.1,.06h0Zm.29,.24s-.06-.06-.1-.09c.04,.03,.07,.06,.1,.09Zm-.11-.1s-.08-.07-.13-.11c.05,.04,.09,.08,.13,.11Zm-.13-.11h0Zm0,0s-.07-.06-.11-.09c.04,.03,.08,.06,.11,.09Zm-.12-.09s-.08-.06-.12-.09c.04,.03,.08,.06,.12,.09Z"/><path class="d" d="M18.61,14.91c1.7,.61,3.87,.38,5.08-.83l.4-.4-2.09-2.09h0l-.65-.65c-.14-.15-.28-.29-.41-.43-.69-.77-1-1.55,.41-2.95l1.32-1.33c1.27-1.27,2.47-.95,3.41,0l6.47,6.47,.02-.02c1.52-1.52,1.82-3.8,.89-5.62-.2-.39-.48-.73-.79-1.03L28.23,1.59s-.04-.04-.06-.05c-.03-.03-.07-.07-.1-.1h0c-1.71-1.58-4.33-1.96-6.56-.62-.22,.13-.43,.3-.62,.48l-.11,.1-.31,.3-4.17,4.17-3.38,3.38-.14,.14s-.06,.06-.09,.09l-.8,.81-.15,.15-.07,.07h0l-3.52,3.54s-.47,.48-1.28,.87c-.13,.06-.28,.13-.43,.18-.38,.14-.81,.25-1.29,.29-.1,0-.19,.01-.29,.01-.1,0-.2,0-.3,0-.2-.01-.41-.04-.63-.08-.97-.2-2.05-.74-3.18-1.87h0v-.02l.55,.57-.04-.04,4.04,4.04h0c1.88,1.87,4.93,1.86,6.8-.02l3.02-3.03c.92-.93,2.4-.95,3.34-.07"/></g><g><path class="d" d="M42.49,15.72c-1.06-.58-1.9-1.4-2.5-2.45-.6-1.05-.9-2.25-.9-3.59s.3-2.54,.9-3.59c.6-1.05,1.44-1.87,2.5-2.45s2.27-.88,3.61-.88c1.08,0,2.09,.21,3.02,.64s1.7,1.02,2.31,1.78c.61,.76,1,1.63,1.16,2.6l-2.86,.33c-.18-.81-.61-1.48-1.28-2-.67-.52-1.43-.78-2.3-.78-.77,0-1.47,.18-2.07,.55-.61,.37-1.08,.88-1.42,1.54-.34,.66-.51,1.41-.51,2.26s.17,1.6,.51,2.27c.34,.66,.81,1.18,1.42,1.55,.61,.37,1.3,.55,2.07,.55,.84,0,1.59-.26,2.26-.77,.67-.51,1.11-1.16,1.32-1.96l2.88,.39c-.15,.95-.53,1.79-1.13,2.54-.61,.74-1.38,1.32-2.31,1.73s-1.96,.62-3.06,.62c-1.34,0-2.54-.29-3.61-.88Z"/><path class="d" d="M54.29,3.12h3.06v5.09h5.46V3.12h3.06v13.13h-3.06v-5.57h-5.46v5.57h-3.06V3.12Z"/><path class="d" d="M71.61,3.12h4.43l4.41,13.13h-3.1l-.81-2.34h-5.46l-.81,2.34h-3.1l4.44-13.13Zm4.26,8.54l-1.96-5.92h-.18l-1.99,5.92h4.13Z"/><path class="d" d="M81.73,3.12h3.06v13.13h-3.06V3.12Z"/><path class="d" d="M87.1,3.12h3.54l4.98,9.17h.18V3.12h2.91v13.13h-3.54l-4.98-9.15h-.18v9.15h-2.91V3.12Z"/><path class="d" d="M101.01,3.12h9.41v2.62h-6.33v2.9h5.53v2.4h-5.53v5.22h-3.08V3.12Z"/><path class="d" d="M114.61,15.9c-.89-.47-1.59-1.13-2.08-1.97-.5-.85-.75-1.83-.75-2.93V3.12h3.06v7.8c0,.93,.26,1.69,.78,2.27,.52,.58,1.2,.87,2.04,.87s1.5-.29,2.02-.88c.52-.58,.78-1.34,.78-2.26V3.12h3.06v7.88c0,1.11-.25,2.08-.75,2.93-.5,.85-1.19,1.51-2.08,1.97-.88,.47-1.9,.7-3.04,.7s-2.16-.23-3.05-.7Z"/><path class="d" d="M127.92,16.02c-.88-.39-1.56-.93-2.05-1.63-.49-.7-.73-1.52-.73-2.45h2.91c.01,.73,.28,1.3,.81,1.72,.53,.42,1.27,.63,2.21,.63,.79,0,1.4-.15,1.85-.44,.45-.29,.67-.71,.67-1.24,0-.39-.13-.7-.38-.93-.25-.23-.57-.4-.97-.51-.39-.11-.92-.21-1.57-.31-1.11-.16-2.02-.34-2.73-.54-.71-.2-1.34-.57-1.88-1.11-.54-.54-.81-1.29-.81-2.26,0-.84,.22-1.57,.66-2.19s1.07-1.11,1.89-1.46c.82-.34,1.78-.52,2.89-.52s2.1,.19,2.94,.56c.84,.38,1.49,.91,1.95,1.6,.46,.69,.68,1.49,.68,2.4h-2.82c.01-.7-.22-1.25-.7-1.64s-1.14-.59-1.97-.59c-.76,0-1.36,.15-1.8,.44-.44,.3-.66,.69-.66,1.18,0,.39,.13,.7,.41,.93,.27,.23,.61,.39,1.03,.5s.98,.21,1.7,.3c1.04,.16,1.92,.35,2.63,.57,.71,.22,1.31,.6,1.82,1.14,.5,.54,.76,1.29,.76,2.25,0,.85-.23,1.59-.69,2.21s-1.12,1.11-1.97,1.46c-.85,.34-1.86,.52-3.02,.52s-2.19-.19-3.07-.58Z"/><path class="d" d="M138.39,3.12h9.68v2.47h-6.7v2.9h6.2v2.16h-6.2v3.14h6.88v2.47h-9.87V3.12Z"/></g></g></g></svg>