<?xml version="1.0" encoding="UTF-8"?>
<svg width="554px" height="554px" viewBox="0 0 554 554" version="1.1" xmlns="http://www.w3.org/2000/svg" xmlns:xlink="http://www.w3.org/1999/xlink">
    <!-- Generator: Sketch 43.2 (39069) - http://www.bohemiancoding.com/sketch -->
    <title>Hedera Hashgraph (HBAR)</title>
    <desc>Created with Sketch.</desc>
    <defs></defs>
    <g id="Page-1" stroke="none" stroke-width="1" fill="none" fill-rule="evenodd">
        <g id="Hedera-Hashgraph-(HBAR)" fill-rule="nonzero">
            <path d="M277.044302,0.155057977 C124.112835,0.155057977 0.155057977,124.112835 0.155057977,277.044302 C0.155057977,429.97577 124.112835,553.933547 277.044302,553.933547 C429.97577,553.933547 553.933547,429.97577 553.933547,277.044302 C553.933547,124.112835 429.953619,0.155057977 277.044302,0.155057977" id="Shape" fill="#000000"></path>
            <path d="M389.594242,396.793363 L354.418233,396.793363 L354.418233,322.033267 L199.62607,322.033267 L199.62607,396.793363 L164.45006,396.793363 L164.45006,154.371291 L199.62607,154.371291 L199.62607,227.337145 L354.418233,227.337145 L354.418233,154.371291 L389.594242,154.371291 L389.594242,396.793363 Z M201.309556,294.056377 L356.101719,294.056377 L356.101719,255.42479 L201.309556,255.42479 L201.309556,294.056377 Z" id="Shape" fill="#FFFFFF"></path>
        </g>
    </g>
</svg>