<?xml version="1.0" encoding="UTF-8"?>
<svg width="556px" height="556px" viewBox="0 0 556 556" version="1.1" xmlns="http://www.w3.org/2000/svg" xmlns:xlink="http://www.w3.org/1999/xlink">
    <!-- Generator: Sketch 43.2 (39069) - http://www.bohemiancoding.com/sketch -->
    <title>Group</title>
    <desc>Created with Sketch.</desc>
    <defs></defs>
    <g id="Page-1" stroke="none" stroke-width="1" fill="none" fill-rule="evenodd">
        <g id="Group" transform="translate(1.000000, 1.000000)">
            <g id="Solana" stroke="#979797" fill="#FFFFFF">
                <circle id="Oval-2" cx="277" cy="277" r="277"></circle>
            </g>
            <g id="hyperledger_logo_icon_170005" transform="translate(80.000000, 88.000000)" fill-rule="nonzero" fill="#2F3134">
                <path d="M117.725839,369.502506 C117.096809,369.502066 116.506809,369.197247 116.142106,368.684284 L0.356926235,204.571378 C-0.0431687746,204.004552 -0.111046123,203.267251 0.178824788,202.636794 L84.039183,20.0452928 C84.3280054,19.4143542 84.9321619,18.9864177 85.6227202,18.9236411 L285.26315,0.44228406 C285.956872,0.358035883 286.63875,0.672593484 287.025376,1.25521711 L402.810849,165.36542 C403.210914,165.932257 403.27879,166.669542 402.98895,167.300005 L319.131293,349.896971 C318.840659,350.526488 318.23739,350.953743 317.54756,351.018622 L117.904234,369.497237 C117.845519,369.502213 117.784847,369.502213 117.726132,369.502213 L117.725839,369.502506 Z M4.17117423,203.243653 L118.662613,365.525011 L316.075327,347.252313 L398.996405,166.692793 L284.504966,4.41149333 L87.0949929,22.6842302 L4.17117423,203.243653 Z" id="path8"></path>
                <path d="M117.030088,369.085286 L84.9861152,202.105664 L84.8295425,19.5574742 L240.950805,65.550797 L402.840911,166.351439 L282.604996,273.321596 L117.030088,369.085286 Z M86.7728446,22.15314 L86.9078885,201.921452 L118.421237,366.039803 L281.475422,271.755378 L399.613341,166.622293 L240.03783,67.2683972 L86.7728446,22.15314 Z" id="path10"></path>
                <ellipse id="circle12" cx="243.51345" cy="67.3863411" rx="5.81403055" ry="5.81912833"></ellipse>
                <path d="M243.51392,79.3935385 C238.66082,79.3983648 234.282881,76.4761512 232.422212,71.9899773 C230.561543,67.5038034 231.584723,62.3375112 235.014485,58.9009411 C238.444247,55.4643709 243.604878,54.4345775 248.089178,56.2919125 C252.573478,58.1492476 255.497975,62.5277889 255.498523,67.3851461 C255.493617,74.0099798 250.132941,79.381297 243.51392,79.3935385 L243.51392,79.3935385 Z M243.51392,67.0383274 L243.153803,67.3850482 C243.157654,67.5806918 243.318423,67.7366173 243.51392,67.7343156 L243.51392,67.0383274 Z" id="path14"></path>
                <ellipse id="circle16" cx="282.326492" cy="272.247408" rx="5.81403055" ry="5.81912833"></ellipse>
                <path d="M282.325748,284.256995 C277.472033,284.261397 273.093805,281.338398 271.233345,276.85147 C269.372885,272.364542 270.396739,267.197694 273.827318,263.761069 C277.257896,260.324445 282.41931,259.295123 286.903951,261.153244 C291.388592,263.011366 294.312902,267.390845 294.312798,272.248819 C294.309004,278.875034 288.946153,284.247337 282.325748,284.256995 L282.325748,284.256995 Z M282.325748,271.901784 L281.968371,272.248505 C281.972007,272.442759 282.131646,272.597637 282.325748,272.595226 L282.325748,271.901784 Z" id="path18"></path>
                <ellipse id="circle20" cx="119.148204" cy="367.563005" rx="5.81403055" ry="5.81912833"></ellipse>
                <path d="M119.14703,379.571182 C114.293363,379.575563 109.915185,376.652592 108.054733,372.165714 C106.194281,367.678835 107.218095,362.512038 110.648608,359.075417 C114.079121,355.638796 119.240466,354.609422 123.725091,356.467455 C128.209716,358.325488 131.134076,362.704865 131.134079,367.562789 C131.130404,374.189089 125.767518,379.561523 119.14703,379.571182 Z M119.14703,367.215951 L118.789848,367.562672 C118.793484,367.756848 118.953003,367.911695 119.14703,367.909393 L119.14703,367.215951 Z" id="path22"></path>
                <ellipse id="circle24" cx="85.7997061" cy="203.864421" rx="5.81403055" ry="5.81912833"></ellipse>
                <path d="M85.8009587,215.869816 C80.9481314,215.874192 76.5707647,212.951578 74.7108938,208.465368 C72.851023,203.979158 73.875113,198.813306 77.3054272,195.377674 C80.7357414,191.942042 85.8963784,190.91358 90.3799081,192.772063 C94.8634378,194.630547 97.7864355,199.009785 97.7853268,203.866869 C97.7780812,210.489758 92.4180389,215.858109 85.8009587,215.869816 L85.8009587,215.869816 Z M85.8009587,203.514605 L85.4408414,203.86681 C85.4467227,204.061161 85.6066965,204.215184 85.8009587,204.213531 L85.8009587,203.514605 Z" id="path26"></path>
                <ellipse id="circle28" cx="401.227175" cy="166.778004" rx="5.81403055" ry="5.81912833"></ellipse>
                <path d="M401.227077,178.782713 C396.374495,178.786004 391.997952,175.862702 390.138925,171.376408 C388.279898,166.890114 389.304647,161.724703 392.735168,158.289626 C396.16569,154.854549 401.326114,153.826575 405.809315,155.68521 C410.292516,157.543846 413.215228,161.922909 413.214126,166.779747 C413.206888,173.403689 407.845212,178.772484 401.227077,178.782713 Z M401.227077,166.427541 L400.8697,166.779747 C400.873336,166.974 401.032975,167.128879 401.227077,167.126468 L401.227077,166.427541 Z" id="path30"></path>
                <ellipse id="circle32" cx="85.7997061" cy="20.8560711" rx="5.81403055" ry="5.81912833"></ellipse>
                <path d="M85.8009587,32.863719 C80.9478377,32.8686405 76.5698266,29.9464873 74.7090834,25.460321 C72.8483403,20.9741547 73.8714621,15.807824 77.3012057,12.3712051 C80.7309492,8.93458622 85.8915985,7.90474961 90.3759274,9.76207079 C94.8602564,11.619392 97.7847784,15.9979481 97.7853268,20.8553267 C97.7804209,27.4800688 92.4198875,32.8513481 85.8009587,32.863719 L85.8009587,32.863719 Z M85.8009587,20.5084883 L85.4406457,20.8554051 C85.444497,21.0510487 85.6052663,21.2069742 85.8007629,21.2046724 L85.8009587,20.5084883 Z" id="path34"></path>
                <path d="M317.369165,351.023892 C317.148894,351.025576 316.92999,350.989127 316.722129,350.916154 L164.501659,297.132973 L0.990086666,205.140804 C0.447656769,204.836735 0.084104168,204.290461 0.012785048,203.672312 C-0.0585340721,203.054162 0.171056253,202.439334 0.629969454,202.019533 L123.651665,89.1915364 L284.507745,0.672980747 C285.040777,0.376901381 285.682355,0.350747886 286.237678,0.602461254 C286.792365,0.853637196 287.19794,1.34978334 287.334078,1.94370284 L323.373709,160.518497 L319.307653,349.127838 C319.29327,349.75026 318.982369,350.328269 318.471163,350.682989 C318.147268,350.906765 317.762652,351.025854 317.369087,351.024225 L317.369165,351.023892 Z M5.22406693,203.070273 L166.098975,293.610094 L315.487827,346.363611 L319.54304,160.905395 L284.120561,5.31377065 L125.895861,92.323268 L5.22406693,203.070273 Z" id="path36"></path>
                <path d="M282.959222,272.980145 L282.165985,272.709233 L84.8480376,204.051101 L85.4841142,203.498307 L243.833328,66.4665906 L282.959222,272.980145 Z M86.7538993,203.682598 L281.692275,271.516885 L243.194864,68.303643 L86.7538993,203.682598 Z" id="path38"></path>
                <path d="M163.887307,298.942347 L122.400982,87.6438686 L325.276869,160.244314 L163.887307,298.942347 Z M127.522847,93.5994161 L166.410359,291.659387 L317.685931,161.653234 L127.522847,93.5994161 Z" id="path40"></path>
                <rect id="rect42" transform="translate(105.381279, 55.735906) rotate(-29.327640) translate(-105.381279, -55.735906) " x="103.441041" y="15.7246373" width="3.88098907" height="80.0225395"></rect>
                <polygon id="polygon44" points="163.515163 294.253165 166.785505 296.348817 120.78136 368.608915 117.511018 366.518252"></polygon>
                <rect id="rect46" transform="translate(361.354132, 163.859719) rotate(-85.821779) translate(-361.354132, -163.859719) " x="359.417071" y="123.845473" width="3.87734993" height="80.0285376"></rect>
            </g>
        </g>
    </g>
</svg>