<?xml version="1.0" encoding="utf-8"?>
<!-- Generator: Adobe Illustrator 26.2.1, SVG Export Plug-In . SVG Version: 6.00 Build 0)  -->
<svg version="1.1" id="Layer_1" xmlns="http://www.w3.org/2000/svg" xmlns:xlink="http://www.w3.org/1999/xlink" x="0px" y="0px"
	 viewBox="0 0 554 554" style="enable-background:new 0 0 554 554;" xml:space="preserve">
<style type="text/css">
	.st0{fill:#8247E5;}
	.st1{clip-path:url(#SVGID_00000099637992654435123140000002272534645353918653_);}
	.st2{fill:#FFFFFF;}
</style>
<desc>Created with Sketch.</desc>
<g>
	<path class="st0" d="M276.9,0.4L276.9,0.4C429.9,0.4,554,124.4,554,277.3l0,0C554,430.2,429.9,554,277,554l0,0
		C123.9,554,0,430.1,0,277.3l0,0C-0.1,124.4,123.9,0.4,276.9,0.4z"/>
	<g>
		<g>
			<defs>
				<rect id="SVGID_1_" x="93.4" y="120.1" width="363.1" height="317.9"/>
			</defs>
			<clipPath id="SVGID_00000084507448750275353950000013548853733586763441_">
				<use xlink:href="#SVGID_1_"  style="overflow:visible;"/>
			</clipPath>
			<g style="clip-path:url(#SVGID_00000084507448750275353950000013548853733586763441_);">
				<path class="st2" d="M367.7,216.9c-6.6-3.8-15.2-3.8-22.7,0l-53,31.4l-36,19.9l-52,31.3c-6.6,3.8-15.2,3.8-22.7,0l-40.7-24.7
					c-6.6-3.8-11.3-11.4-11.3-19.9v-47.5c0-7.6,3.8-15.1,11.3-19.9l40.7-23.7c6.6-3.8,15.2-3.8,22.7,0l40.7,24.7
					c6.6,3.8,11.3,11.4,11.3,19.9v31.4l36-20.9v-32.2c0-7.6-3.8-15.1-11.3-19.9L205.1,122c-6.6-3.8-15.2-3.8-22.7,0l-77.5,45.6
					c-7.5,3.8-11.3,11.4-11.3,18.9v89.2c0,7.6,3.8,15.1,11.3,19.9l76.6,44.7c6.6,3.8,15.2,3.8,22.7,0l52-30.4l36-20.9l52-30.4
					c6.6-3.8,15.2-3.8,22.7,0l40.7,23.7c6.6,3.8,11.3,11.4,11.3,19.9v47.5c0,7.6-3.8,15.1-11.3,19.9l-39.7,23.7
					c-6.6,3.8-15.2,3.8-22.7,0l-40.8-23.7c-6.6-3.8-11.3-11.4-11.3-19.9v-30.4l-36,20.9v31.4c0,7.6,3.8,15.1,11.3,19.9l76.6,44.7
					c6.6,3.8,15.2,3.8,22.7,0l76.6-44.7c6.6-3.8,11.3-11.4,11.3-19.9v-90.2c0-7.6-3.8-15.1-11.3-19.9L367.7,216.9z"/>
			</g>
		</g>
	</g>
</g>
</svg>
