<?xml version="1.0" encoding="UTF-8"?>
<svg width="752pt" height="752pt" version="1.1" viewBox="0 0 752 752" xmlns="http://www.w3.org/2000/svg">
 <g>
  <path d="m334.8 320.12c46.41 0 84.297-37.887 84.297-84.297 0-46.41-37.887-84.297-84.297-84.297-46.41 0-84.297 37.887-84.297 84.297-0.47656 46.41 37.41 84.297 84.297 84.297z"/>
  <path d="m445.62 391.63c-14.68-28.887-44.988-48.777-79.562-48.777h-62.984c-45.465 0-83.352 34.098-89.035 79.09l-8.0508 67.25c-1.4219 12.785 6.6289 25.102 19.418 27.469 34.57 7.1055 71.039 10.418 108.92 10.418h6.6289c13.262 42.621 53.043 73.879 99.926 73.879 57.777 0 104.66-46.883 104.66-104.66 0.47656-56.363-44.039-102.3-99.922-104.67zm-4.2617 181.38c-42.148 0-76.719-34.57-76.719-76.719 0-42.148 34.57-76.719 76.719-76.719 42.148 0 76.719 34.57 76.719 76.719 0 42.148-34.57 76.719-76.719 76.719z"/>
  <path d="m476.88 482.08h-21.312v-21.312c0-7.5781-6.1562-13.734-13.734-13.734s-13.734 6.1562-13.734 13.734v21.312h-21.312c-7.5781 0-13.734 6.1562-13.734 13.734s6.1562 13.734 13.734 13.734h21.312v21.312c0 7.5781 6.1562 13.734 13.734 13.734s13.734-6.1562 13.734-13.734v-21.312h21.312c7.5781 0 13.734-6.1562 13.734-13.734 0-7.1016-6.1562-13.734-13.734-13.734z"/>
 </g>
</svg>
