<?xml version="1.0" encoding="UTF-8"?>
<svg width="752pt" height="752pt" version="1.1" viewBox="0 0 752 752" xmlns="http://www.w3.org/2000/svg">
 <path d="m375.99 174.72c-42.156 0-76.562 34.406-76.562 76.562 0 16.809 5.4805 32.398 14.73 45.07l-17.809 17.805c-12.672-9.25-28.258-14.73-45.066-14.73-42.156 0-76.562 34.406-76.562 76.562 0 24.762 11.863 46.852 30.199 60.863h-0.003907c0.60547 0.55469 1.2656 1.043 1.9688 1.457 12.539 8.9688 27.871 14.246 44.398 14.246 16.293 0 31.434-5.1328 43.891-13.875h-0.003906c0.43359-0.22656 0.85156-0.48438 1.25-0.76172l17.734 17.734c-9.2461 12.672-14.73 28.262-14.73 45.07 0 24.746 11.883 46.805 30.199 60.816 0.023437 0.023438 0.046875 0.050782 0.070312 0.070313 0.18359 0.14062 0.37109 0.27734 0.55469 0.41797h0.003906c0.36719 0.30859 0.75391 0.59375 1.1562 0.85547 12.574 9.0508 27.973 14.406 44.582 14.406 0.66016 0 1.3125-0.035156 1.9648-0.050781 15.98-0.40625 30.793-5.7539 42.918-14.566 0.046875-0.035156 0.09375-0.058594 0.14062-0.09375 0.25391-0.17578 0.5-0.36328 0.74219-0.55469 0.49219-0.36719 0.97266-0.73047 1.457-1.1094 2.8945-2.2773 5.625-4.7617 8.1641-7.4219 13.113-13.754 21.18-32.348 21.18-52.77 0-0.66016-0.007813-1.332-0.023438-1.9883-0.41016-16.055-5.8008-30.906-14.684-43.082l17.734-17.734v-0.003907c0.30078 0.19922 0.60938 0.38672 0.92578 0.55469 12.512 8.8711 27.785 14.082 44.215 14.082 16.359 0 31.539-5.1836 44.004-13.988 0.039063-0.023438 0.078126-0.046875 0.11719-0.070312 0.046875-0.035157 0.09375-0.058594 0.14062-0.09375 0.80078-0.46094 1.5469-1.0117 2.2188-1.6445 18.262-14.016 30.086-36.07 30.086-60.77 0-42.156-34.406-76.562-76.562-76.562-16.805 0-32.398 5.4844-45.07 14.73l-17.809-17.805c9.25-12.672 14.707-28.258 14.707-45.07 0-42.156-34.406-76.562-76.562-76.562zm0 23.68c29.359 0 52.887 23.523 52.887 52.883 0 10.961-3.2891 21.125-8.9258 29.551-3.6875-6.7266-8.8516-12.512-15.078-16.926 4.6367-6.1094 7.3984-13.711 7.3984-21.898 0-19.922-16.359-36.352-36.281-36.352s-36.258 16.43-36.258 36.352c0 8.1758 2.7539 15.77 7.375 21.875-6.2266 4.4023-11.426 10.176-15.125 16.879-5.6094-8.4141-8.8555-18.551-8.8555-29.484 0-0.45703-0.011719-0.90625 0-1.3633 0.71875-28.719 23.961-51.52 52.863-51.52zm0 30.941c7.1094 0 12.602 5.5352 12.602 12.672s-5.4922 12.672-12.602 12.672-12.672-5.5352-12.672-12.672 5.5625-12.672 12.672-12.672zm-0.67188 49.047c0.22656-0.003907 0.44141 0 0.67188 0 12.383 0 22.508 8.0469 25.551 19.332-7.5586 4.1602-16.262 6.5195-25.551 6.5195-1.375 0-2.7461-0.035156-4.0938-0.14062-0.44922-0.035156-0.89453-0.070312-1.3398-0.11719-7.2539-0.73047-14.051-2.9258-20.117-6.2656 2.9883-11.074 12.809-19.043 24.883-19.332zm45.785 34.777 17.758 17.758c-9.2852 12.664-14.801 28.238-14.801 45.07 0 16.824 5.4961 32.43 14.777 45.094l-17.754 17.754c-12.664-9.2812-28.27-14.773-45.094-14.773-16.469 0-31.746 5.2695-44.258 14.199-0.27344 0.19531-0.53906 0.40234-0.80859 0.60156l-17.785-17.785c9.2852-12.664 14.801-28.262 14.801-45.094 0-16.828-5.5117-32.406-14.801-45.07l17.734-17.734c0.22656 0.15625 0.46094 0.30078 0.69531 0.44141 12.543 8.9961 27.883 14.312 44.422 14.312 16.594 0 31.996-5.3555 44.559-14.406h0.023437l0.023438-0.023438c0.17578-0.11328 0.34375-0.23047 0.51172-0.34766zm-171.19 9.9648c0.45703-0.011718 0.90625 0 1.3633 0 14.188 0 27.051 5.5117 36.535 14.5 0.011719 0.011719 0.035156 0.035156 0.046875 0.050782l0.003906-0.003907c0.26172 0.32422 0.53906 0.63281 0.83203 0.92578 0.32813 0.32813 0.67578 0.63672 1.043 0.92188 9.0078 9.4648 14.5 22.281 14.5 36.465 0 10.949-3.2852 21.098-8.9258 29.508-3.6953-6.7188-8.9023-12.508-15.125-16.926 4.6641-6.1172 7.4453-13.723 7.4453-21.922 0-19.922-16.43-36.281-36.352-36.281s-36.281 16.359-36.281 36.281c0 8.1875 2.7656 15.789 7.3984 21.898-6.2188 4.4219-11.391 10.246-15.078 16.973-5.6367-8.4141-8.9258-18.566-8.9258-29.531 0-28.902 22.805-52.141 51.52-52.863zm249.42 0c0.45703-0.011718 0.92969 0 1.3867 0 29.359 0 52.863 23.5 52.863 52.863 0 10.961-3.2656 21.117-8.9023 29.531-3.6875-6.7344-8.875-12.551-15.102-16.973 4.6367-6.1094 7.3984-13.711 7.3984-21.898 0-19.922-16.34-36.281-36.258-36.281-19.922 0-36.375 16.359-36.375 36.281 0 8.1875 2.793 15.789 7.4453 21.898-6.2305 4.4219-11.402 10.246-15.102 16.973-5.6523-8.4141-8.9492-18.566-8.9492-29.531 0-14.211 5.5586-27.066 14.59-36.535l0.003906-0.003906c0.33984-0.26562 0.66406-0.55078 0.97266-0.85547 0.29297-0.29297 0.57031-0.60156 0.83203-0.92578 9.1875-8.7344 21.52-14.203 35.195-14.547zm-248.72 30.941c0.21875-0.011718 0.44922 0 0.67188 0 7.1094 0 12.672 5.4414 12.672 12.578 0 7.1367-5.5625 12.672-12.672 12.672s-12.578-5.5352-12.578-12.672c0-6.9141 5.125-12.254 11.91-12.578zm249.44 0c0.21875-0.011718 0.44922 0 0.67188 0 7.1094 0 12.578 5.4414 12.578 12.578 0 7.1367-5.4688 12.672-12.578 12.672s-12.672-5.5352-12.672-12.672c0-6.9141 5.2109-12.254 12-12.578zm-249.44 48.93c0.22656 0.003906 0.44531 0 0.67188 0s0.44531 0.003906 0.67188 0c12.059 0.28906 21.879 8.3047 24.883 19.379-7.5664 4.1406-16.273 6.4961-25.551 6.4961-9.2539 0-17.922-2.3555-25.461-6.4766 2.9766-11.082 12.727-19.109 24.789-19.402zm249.42 0c0.22656 0.003906 0.46484 0 0.69531 0 0.22656 0 0.44531 0.003906 0.67188 0 12.062 0.28906 21.812 8.3164 24.789 19.402-7.5391 4.1172-16.207 6.4766-25.461 6.4766-9.2812 0-17.984-2.3594-25.551-6.4961 3-11.074 12.801-19.086 24.859-19.379zm-124.04 44.742c13.762 0 26.238 5.2031 35.609 13.734 0.28516 0.25781 0.57812 0.51953 0.85547 0.78516l0.003906 0.003906c0.015625 0.015625 0.03125 0.03125 0.046875 0.050781 0.28125 0.34766 0.58203 0.67969 0.90234 0.99219 0.26562 0.26172 0.54297 0.50781 0.83203 0.74219 9.0781 9.5 14.637 22.406 14.637 36.676 0 10.551-3.0469 20.336-8.3008 28.559-0.19922 0.30859-0.39453 0.62109-0.60156 0.92578-3.6875-6.7344-8.8711-12.531-15.102-16.949 4.6367-6.1094 7.3984-13.711 7.3984-21.898 0-19.922-16.359-36.352-36.281-36.352s-36.258 16.43-36.258 36.352c0 8.1758 2.7539 15.77 7.375 21.875-6.2305 4.4062-11.449 10.188-15.145 16.902-0.1875-0.28125-0.37109-0.56641-0.55469-0.85547-5.2539-8.2227-8.2773-18.008-8.2773-28.559 0-0.46094-0.011718-0.93359 0-1.3867 0.34375-13.723 5.8516-26.094 14.637-35.289 0.28906-0.23438 0.56641-0.48047 0.83203-0.74219 0.30469-0.30859 0.58984-0.63281 0.85547-0.96875 0.011719-0.011719 0.035156-0.035156 0.046875-0.050782 0.007812-0.007812 0.015625-0.015624 0.023438-0.023437 8.5469-8.1328 19.82-13.41 32.375-14.359 0.44922-0.035156 0.91016-0.070312 1.3633-0.09375 0.90625-0.050781 1.8125-0.070312 2.7305-0.070312zm0 30.941c7.1094 0 12.602 5.5352 12.602 12.672s-5.4922 12.672-12.602 12.672-12.672-5.5352-12.672-12.672 5.5625-12.672 12.672-12.672zm-0.67188 49.047c0.22656-0.003907 0.44141 0 0.67188 0 12.395 0 22.539 8.0586 25.574 19.355-7.1914 3.9492-15.406 6.2773-24.188 6.4961-0.45703 0.011719-0.92969 0-1.3867 0-9.2969 0-18.012-2.3438-25.574-6.4961 2.9805-11.09 12.82-19.066 24.906-19.355z"/>
</svg>
