<?xml version="1.0" encoding="UTF-8"?>
<svg width="585px" height="574px" viewBox="0 0 585 574" version="1.1" xmlns="http://www.w3.org/2000/svg" xmlns:xlink="http://www.w3.org/1999/xlink">
    <!-- Generator: Sketch 43.2 (39069) - http://www.bohemiancoding.com/sketch -->
    <title>Group 11</title>
    <desc>Created with Sketch.</desc>
    <defs></defs>
    <g id="Page-1" stroke="none" stroke-width="1" fill="none" fill-rule="evenodd">
        <g id="Group-11">
            <rect id="Rectangle-2" stroke="#FFFFFF" x="0.5" y="0.5" width="584" height="573"></rect>
            <g id="learn" transform="translate(76.000000, 105.000000)" fill-rule="nonzero" fill="#000000">
                <path d="M216,0.41011236 L0.191392405,135.960449 L15.4316962,145.535069 L15.4316962,313.325706 C8.52680506,317.309401 3.74199494,324.149938 2.35357975,331.999489 C0.970496203,339.854644 3.12791241,347.918684 8.25448101,354.021155 C13.3810633,360.130189 20.9481722,363.65989 28.9207595,363.65989 C36.8933468,363.65989 44.4604557,360.130189 49.587038,354.021155 C54.7136203,347.91759 56.8710228,339.854507 55.4879392,331.999489 C54.0995241,324.149665 49.3147139,317.309264 42.4098228,313.325706 L42.4098228,162.390687 L69.3879494,179.115069 L215.994532,271.507916 L363.011241,179.115069 L431.803139,135.957579 L216,0.41011236 Z" id="Shape"></path>
                <path d="M68.9832911,211.084831 L68.9832911,216.211236 C68.9832911,268.735693 97.0031392,317.271124 142.491646,343.527884 C187.978785,369.790112 244.025316,369.790112 289.508354,343.527884 C334.995494,317.271124 363.016709,268.735693 363.016709,216.211236 L363.016709,211.084831 L216,303.205637 L68.9832911,211.084831 Z" id="Shape"></path>
            </g>
        </g>
    </g>
</svg>