<?xml version="1.0" encoding="UTF-8"?>
<svg width="752pt" height="752pt" version="1.1" viewBox="0 0 752 752" xmlns="http://www.w3.org/2000/svg">
 <g>
  <path d="m501.8 161.41c-57.215 0-103.6 46.383-103.6 103.6 0 57.215 46.383 103.6 103.6 103.6s103.6-46.383 103.6-103.6c-0.003906-57.215-46.383-103.6-103.6-103.6zm44.398 125.79-44.398 29.598-44.398-29.598v-44.398l44.398-29.598 44.398 29.598z"/>
  <path d="m250.21 368.6c57.215 0 103.6-46.383 103.6-103.6-0.003907-57.211-46.383-103.59-103.6-103.59-57.215 0-103.6 46.383-103.6 103.6 0 57.211 46.383 103.59 103.6 103.59zm0-162.79 59.199 59.199-59.199 59.199-59.199-59.199z"/>
  <path d="m272.41 487c0 57.215 46.383 103.6 103.6 103.6s103.6-46.383 103.6-103.6-46.383-103.6-103.6-103.6c-57.219 0.003906-103.6 46.383-103.6 103.6zm103.59-59.195 51.797 88.797h-103.59z"/>
 </g>
</svg>
