<?xml version="1.0" encoding="UTF-8"?>
<svg width="79px" height="79px" viewBox="0 0 79 79" version="1.1" xmlns="http://www.w3.org/2000/svg" xmlns:xlink="http://www.w3.org/1999/xlink">
    <!-- Generator: Sketch 43.2 (39069) - http://www.bohemiancoding.com/sketch -->
    <title>transfer</title>
    <desc>Created with Sketch.</desc>
    <defs></defs>
    <g id="Page-1" stroke="none" stroke-width="1" fill="none" fill-rule="evenodd">
        <g id="transfer">
            <g transform="translate(19.000000, 19.000000)" id="Shape" fill-rule="nonzero" fill="#000000">
                <path d="M33.6333333,39.6511468 L25.7519048,39.6511468 C24.6581429,39.6511468 23.6769524,39.206514 22.9552381,38.5060855 C22.2446667,37.7946731 21.7935952,36.827465 21.7935952,35.7493392 L21.7935952,27.9804121 C21.7935952,26.9132701 22.2446667,25.9350782 22.9552381,25.2346966 C23.6769524,24.5232842 24.6581667,24.0896353 25.7519048,24.0896353 L33.6333333,24.0896353 C34.7159286,24.0896353 35.7082857,24.5232842 36.43,25.2346966 C37.1405714,25.9351251 37.5804762,26.9133171 37.5804762,27.9804121 L37.5804762,35.7493392 C37.5804762,36.8274884 37.1405476,37.7946731 36.43,38.5060855 C35.7082857,39.206514 34.7159048,39.6511468 33.6333333,39.6511468 Z"></path>
                <path d="M3.86428571,20.901235 C4.24747619,20.2008064 5.00266667,19.7231754 5.86019048,19.7231754 C6.75119048,19.7231754 7.52871429,20.2347435 7.88957143,20.9681704 L10.9569524,26.2030782 C11.5773095,27.2702202 11.2164286,28.626086 10.145,29.2377053 C9.50233333,29.6044188 8.74711905,29.6264098 8.11561905,29.348637 L8.11561905,35.5176373 L16.5837143,35.5176373 C17.8244048,35.5176373 18.839119,36.5178438 18.839119,37.7408478 C18.839119,38.9748356 17.8244286,39.9640583 16.5837143,39.9640583 L8.11561905,39.9640583 C6.887,39.9640583 5.75885714,39.4634974 4.93585714,38.6640504 L4.93585714,38.653049 C4.1127619,37.8526866 3.60495238,36.7415625 3.60495238,35.5186758 L3.60495238,29.1058258 C2.87207143,29.639385 1.84621429,29.6953132 1.04542857,29.1727519 C0.0084047619,28.4943379 -0.28547619,27.1274179 0.402761905,26.1052672 L3.86442857,20.9034517 L3.86428571,20.901235 Z"></path>
                <path d="M36.1357143,19.098765 C35.7525238,19.7991936 34.9973333,20.2768246 34.1398095,20.2768246 C33.2488095,20.2768246 32.4712857,19.7652565 32.1104286,19.0318296 L29.0430476,13.7969218 C28.4226905,12.7297798 28.7835714,11.373914 29.855,10.7622947 C30.4976667,10.3955812 31.252881,10.3735902 31.884381,10.651363 L31.884381,4.48236272 L23.4162857,4.48236272 C22.1755952,4.48236272 21.160881,3.48215619 21.160881,2.25915218 C21.160881,1.02516437 22.1755714,0.035941652 23.4162857,0.035941652 L31.884381,0.035941652 C33.113,0.035941652 34.2411429,0.536502572 35.0641429,1.33594962 L35.0641429,1.34695102 C35.8872381,2.14731338 36.3950476,3.25843752 36.3950476,4.48132418 L36.3950476,10.8941742 C37.1279286,10.360615 38.1537857,10.3046868 38.9545714,10.8272481 C39.9915952,11.5056621 40.2854762,12.8725821 39.5972381,13.8947328 L36.1355714,19.0965483 L36.1357143,19.098765 Z"></path>
                <path d="M17.6214286,4.82921144 L17.6214286,12.5981385 C17.6214286,13.6652805 17.1703571,14.6434724 16.4597857,15.3548848 C15.7380714,16.0553133 14.7568571,16.4889388 13.663119,16.4889388 L5.78169048,16.4889388 C4.69909524,16.4889388 3.7067381,16.0552899 2.98502381,15.3548848 C2.27445238,14.6434724 1.83454762,13.665257 1.83454762,12.5981385 L1.83454762,4.82921144 C1.83454762,3.75106218 2.27447619,2.78387747 2.98502381,2.07246512 C3.7067381,1.37203657 4.69911905,0.927403849 5.78169048,0.927403849 L13.663119,0.927403849 C14.756881,0.927403849 15.7380714,1.37203657 16.4597857,2.07246512 C17.1703571,2.78387747 17.6214286,3.75108565 17.6214286,4.82921144 Z"></path>
            </g>
            <rect id="Rectangle" stroke-opacity="0.01" stroke="#FFFFFF" x="0.5" y="0.5" width="78" height="78"></rect>
        </g>
    </g>
</svg>