<svg width="68" height="54" viewBox="0 0 68 54" fill="none" xmlns="http://www.w3.org/2000/svg">
<path d="M54.0001 0.41803H14.0001C6.63341 0.41803 0.666748 6.3847 0.666748 13.7514V40.418C0.666748 47.7847 6.63341 53.7514 14.0001 53.7514H54.0001C61.3668 53.7514 67.3334 47.7847 67.3334 40.418V13.7514C67.3334 6.3847 61.3668 0.41803 54.0001 0.41803ZM47.8001 32.9847C47.0001 33.6514 45.9001 33.918 44.8668 33.6514L7.83342 24.5847C8.83342 22.1514 11.2001 20.418 14.0001 20.418H54.0001C56.2334 20.418 58.2001 21.5514 59.4334 23.218L47.8001 32.9847ZM14.0001 7.0847H54.0001C57.6668 7.0847 60.6668 10.0847 60.6668 13.7514V15.5847C58.7001 14.4514 56.4334 13.7514 54.0001 13.7514H14.0001C11.5667 13.7514 9.30008 14.4514 7.33342 15.5847V13.7514C7.33342 10.0847 10.3334 7.0847 14.0001 7.0847Z" fill="#404659"/>
</svg>
